<svg width="968" height="307" viewBox="0 0 968 307" fill="none" xmlns="http://www.w3.org/2000/svg">
<path opacity="0.917" fill-rule="evenodd" clip-rule="evenodd" d="M34.5 79.5C64.1685 79.3334 93.8352 79.5 123.5 80C124.487 90.4179 124.82 100.918 124.5 111.5C116.5 111.5 108.5 111.5 100.5 111.5C100.833 153.505 100.5 195.505 99.5 237.5C85.9702 238.826 72.4702 238.826 59 237.5C58.5 195.501 58.3333 153.501 58.5 111.5C50.5 111.5 42.5 111.5 34.5 111.5C34.5 100.833 34.5 90.1667 34.5 79.5Z" fill="black"/>
<path opacity="0.935" fill-rule="evenodd" clip-rule="evenodd" d="M134.5 79.5C158.836 79.3334 183.169 79.5 207.5 80C220.266 82.099 228.766 89.2657 233 101.5C234.106 112.287 234.606 123.12 234.5 134C234.606 144.88 234.106 155.713 233 166.5C229.503 173.993 223.67 178.493 215.5 180C222.067 192.3 228.233 204.8 234 217.5C234.667 224.167 234.667 230.833 234 237.5C220.575 238.656 207.075 238.822 193.5 238C192.685 230.913 192.185 223.747 192 216.5C186.667 205.833 181.333 195.167 176 184.5C175.667 202.167 175.333 219.833 175 237.5C161.579 238.49 148.079 238.823 134.5 238.5C134.5 185.5 134.5 132.5 134.5 79.5ZM175.5 111.5C181.167 111.5 186.833 111.5 192.5 111.5C192.5 123.5 192.5 135.5 192.5 147.5C186.833 147.5 181.167 147.5 175.5 147.5C175.5 135.5 175.5 123.5 175.5 111.5Z" fill="black"/>
<path opacity="0.935" fill-rule="evenodd" clip-rule="evenodd" d="M274.5 79.5C291.881 79.0718 309.214 79.5718 326.5 81C336.667 84.5 343.5 91.3333 347 101.5C348.641 146.796 348.974 192.129 348 237.5C334.333 238.833 320.667 238.833 307 237.5C306.5 221.503 306.333 205.503 306.5 189.5C300.833 189.5 295.167 189.5 289.5 189.5C289.667 205.503 289.5 221.503 289 237.5C275.579 238.49 262.079 238.823 248.5 238.5C248.333 193.499 248.5 148.499 249 103.5C252.566 90.0971 261.066 82.0971 274.5 79.5ZM289.5 111.5C295.167 111.5 300.833 111.5 306.5 111.5C306.5 126.833 306.5 142.167 306.5 157.5C300.833 157.5 295.167 157.5 289.5 157.5C289.5 142.167 289.5 126.833 289.5 111.5Z" fill="black"/>
<path opacity="0.928" fill-rule="evenodd" clip-rule="evenodd" d="M363.5 79.5C376.85 79.1675 390.183 79.5008 403.5 80.5C404.32 97.7894 404.82 115.123 405 132.5C410.333 121.833 415.667 111.167 421 100.5C421.5 93.5079 421.666 86.5079 421.5 79.5C434.837 79.3334 448.171 79.5001 461.5 80C462.647 87.4201 462.813 94.9201 462 102.5C456.167 114.167 450.333 125.833 444.5 137.5C453.133 140.3 458.966 145.966 462 154.5C462.667 182.167 462.667 209.833 462 237.5C448.579 238.49 435.079 238.823 421.5 238.5C421.5 215.5 421.5 192.5 421.5 169.5C415.833 169.5 410.167 169.5 404.5 169.5C404.833 192.176 404.5 214.843 403.5 237.5C389.97 238.826 376.47 238.826 363 237.5C362.172 184.763 362.338 132.096 363.5 79.5Z" fill="black"/>
<path opacity="0.951" fill-rule="evenodd" clip-rule="evenodd" d="M477.5 79.5C501.836 79.3334 526.169 79.5 550.5 80C565 82.5 573.5 91 576 105.5C576.667 125.167 576.667 144.833 576 164.5C573.687 176.303 566.853 184.137 555.5 188C542.894 189.42 530.228 189.92 517.5 189.5C517.5 205.833 517.5 222.167 517.5 238.5C504.167 238.5 490.833 238.5 477.5 238.5C477.5 185.5 477.5 132.5 477.5 79.5ZM517.5 111.5C523.5 111.5 529.5 111.5 535.5 111.5C535.5 126.833 535.5 142.167 535.5 157.5C529.5 157.5 523.5 157.5 517.5 157.5C517.5 142.167 517.5 126.833 517.5 111.5Z" fill="black"/>
<path opacity="0.952" fill-rule="evenodd" clip-rule="evenodd" d="M618.5 79.4999C635.548 79.0732 652.548 79.5732 669.5 80.9999C680.096 84.5955 686.929 91.7622 690 102.5C690.5 147.832 690.667 193.165 690.5 238.5C677.167 238.5 663.833 238.5 650.5 238.5C650.5 222.167 650.5 205.833 650.5 189.5C644.5 189.5 638.5 189.5 632.5 189.5C632.667 205.503 632.5 221.503 632 237.5C618.667 238.833 605.333 238.833 592 237.5C591.333 193.833 591.333 150.167 592 106.5C595.029 91.639 603.862 82.639 618.5 79.4999ZM632.5 111.5C638.5 111.5 644.5 111.5 650.5 111.5C650.5 126.833 650.5 142.167 650.5 157.5C644.5 157.5 638.5 157.5 632.5 157.5C632.5 142.167 632.5 126.833 632.5 111.5Z" fill="black"/>
<path opacity="0.946" fill-rule="evenodd" clip-rule="evenodd" d="M732.5 79.5C748.17 79.3334 763.837 79.5001 779.5 80C794 82.5 802.5 91 805 105.5C805.5 117.162 805.667 128.829 805.5 140.5C791.833 140.5 778.167 140.5 764.5 140.5C764.5 130.833 764.5 121.167 764.5 111.5C758.5 111.5 752.5 111.5 746.5 111.5C746.5 143.167 746.5 174.833 746.5 206.5C752.5 206.5 758.5 206.5 764.5 206.5C764.5 196.833 764.5 187.167 764.5 177.5C778.167 177.5 791.833 177.5 805.5 177.5C805.667 189.505 805.5 201.505 805 213.5C801.181 227.651 792.015 235.818 777.5 238C763.167 238.667 748.833 238.667 734.5 238C719.837 236.587 710.67 228.753 707 214.5C706.333 177.5 706.333 140.5 707 103.5C710.566 90.0971 719.066 82.0971 732.5 79.5Z" fill="black"/>
<path opacity="0.929" fill-rule="evenodd" clip-rule="evenodd" d="M821.5 79.5C834.833 79.5 848.167 79.5 861.5 79.5C861.333 97.5031 861.5 115.503 862 133.5C867.333 122.833 872.667 112.167 878 101.5C878.185 94.2534 878.685 87.0867 879.5 80C892.829 79.5001 906.163 79.3334 919.5 79.5C919.666 87.1739 919.5 94.8406 919 102.5C913.167 114.167 907.333 125.833 901.5 137.5C909.958 139.46 915.792 144.46 919 152.5C919.5 181.165 919.667 209.831 919.5 238.5C905.921 238.823 892.421 238.49 879 237.5C878.5 214.836 878.333 192.169 878.5 169.5C872.833 169.5 867.167 169.5 861.5 169.5C861.667 192.169 861.5 214.836 861 237.5C847.53 238.826 834.03 238.826 820.5 237.5C819.333 185.503 819.167 133.503 820 81.5C820.717 80.9558 821.217 80.2891 821.5 79.5Z" fill="black"/>
</svg>
